# xmcd
#
# Track frame offsets:
#	225
#	11172
#	16746
#	28033
#	40901
#	54881
#	70542
#	86832
#	97308
#	119326
#	136251
#	153521
#	167193
#	176842
#	189161
#	209210
#	231819
#	257634
#	268892
#	293216
#
# Disc length: 4220 seconds
#
# Revision: 9
# Processed by: cddbd v1.5.2PL0 Copyright (c) Steve Scherf et al.
# Submitted via: audiograbber 1.83.01
#
DISCID=22107914
DTITLE=Eric Clapton - Best Of
DYEAR=2001
DGENRE=Blues
TTITLE0=Eric Clapton - Boom Boom (Out Goes The Light)
TTITLE1=Eric Clapton with Jimmy Page - Choker
TTITLE2=Eric Clapton with The Yardbirds - Snake Drive
TTITLE3=Eric Clapton with Jimmy Page - Freight Loader
TTITLE4=Eric Clapton with Jimmy Page - Draggin' My Tail
TTITLE5=Eric Clapton with Jack Bruce and Ginger Baker - Louise (Louise Bues)
TTITLE6=Eric Clapton with Jack Bruce and Ginger Baker - Early In The Morning
TTITLE7=Eric Clapton with Jimmy Page - Pound And Stomps
TTITLE8=Eric Clapton with The Yardbirds - The First Time I Met The Blues
TTITLE9=Eric Clapton with Jack Bruce and Ginger Baker - (They Call It) Stormy Mon
TTITLE9=day Blues
TTITLE10=Eric Clapton with Jack Bruce and Ginger Baker - Big Boss Man
TTITLE11=Eric Clapton with Jeff Beck - Jeff's Blues
TTITLE12=Eric Clapton with Jimmy Page - Tribute To Elmore
TTITLE13=Eric Clapton with Jimmy Page - Highway 49
TTITLE14=Eric Clapton with Jimmy Page - Wang-Dang-Doodle
TTITLE15=Eric Clapton with Jack Bruce and Ginger Baker - Five Long Years (live)
TTITLE16=Eric Clapton with Jack Bruce and Ginger Baker - She's So Respectable (li
TTITLE16=ve)
TTITLE17=The Yardbirds feat. Eric Clapton - For Your Love
TTITLE18=Eric Clapton - Respectable (live)
TTITLE19=Eric Clapton - 23 Hours Too Long (live)
EXTD=
EXTT0=
EXTT1=
EXTT2=
EXTT3=
EXTT4=
EXTT5=
EXTT6=
EXTT7=
EXTT8=
EXTT9=
EXTT10=
EXTT11=
EXTT12=
EXTT13=
EXTT14=
EXTT15=
EXTT16=
EXTT17=
EXTT18=
EXTT19=
PLAYORDER=
